<svg width="15" height="10" viewBox="0 0 15 10" fill="none" xmlns="http://www.w3.org/2000/svg">
<path d="M12.6985 0.829529C11.7258 0.439129 10.6995 0.160494 9.64506 0.000569545C9.63551 -0.000837589 9.62569 0.000377705 9.61696 0.00404837C9.60823 0.00771903 9.60102 0.0136648 9.59631 0.021068C9.46412 0.226053 9.31787 0.494173 9.21569 0.704078C8.07908 0.553216 6.92295 0.553216 5.78635 0.704078C5.67236 0.470248 5.54341 0.242217 5.4001 0.021068C5.39529 0.0137459 5.38806 0.00786861 5.37936 0.00420974C5.37066 0.000550877 5.36089 -0.000718153 5.35135 0.000569545C4.29668 0.159638 3.27012 0.438418 2.29795 0.829529C2.28963 0.832306 2.28267 0.837522 2.27826 0.844288C0.333905 3.38528 -0.199527 5.86396 0.0620327 8.31148C0.0629702 8.32296 0.0714076 8.33444 0.08172 8.34182C1.21395 9.07535 2.48037 9.63541 3.82699 9.9981C3.8365 10.0007 3.84672 10.0006 3.85616 9.99783C3.8656 9.99502 3.87377 9.98966 3.87949 9.98252C4.16824 9.63815 4.42511 9.27491 4.64636 8.89282C4.65097 8.88495 4.65255 8.87599 4.65086 8.86727C4.64917 8.85855 4.6443 8.85055 4.63698 8.84444C4.63214 8.84044 4.62639 8.83737 4.62011 8.83542C4.2162 8.69966 3.82502 8.53654 3.45012 8.34756C3.43965 8.34237 3.43186 8.33386 3.42837 8.32378C3.42488 8.31371 3.42596 8.30285 3.43137 8.29344C3.43456 8.28734 3.43939 8.282 3.44543 8.27787C3.52418 8.22621 3.60293 8.17209 3.67793 8.11798C3.68456 8.11332 3.69251 8.11032 3.70093 8.10931C3.70935 8.1083 3.71793 8.10931 3.72574 8.11224C6.18103 9.09289 8.83882 9.09289 11.2641 8.11224C11.2722 8.10917 11.2811 8.10808 11.2899 8.1091C11.2986 8.11011 11.3069 8.11318 11.3138 8.11798C11.3888 8.17209 11.4675 8.22621 11.5463 8.27787C11.5527 8.28194 11.5578 8.28734 11.5612 8.29358C11.5646 8.29981 11.5662 8.30669 11.5658 8.31359C11.5655 8.3205 11.5631 8.32722 11.5591 8.33314C11.555 8.33907 11.5493 8.34402 11.5425 8.34756C11.1685 8.53827 10.7768 8.70119 10.3716 8.83461C10.3651 8.83665 10.3593 8.83991 10.3544 8.84417C10.3496 8.84842 10.3458 8.85355 10.3435 8.8592C10.3413 8.86468 10.3405 8.87049 10.3409 8.87627C10.3414 8.88205 10.3432 8.88768 10.3463 8.89282C10.5713 9.27409 10.8291 9.63815 11.1122 9.98252C11.1179 9.98966 11.1261 9.99502 11.1356 9.99783C11.145 10.0006 11.1552 10.0007 11.1647 9.9981C12.5136 9.63653 13.7821 9.07641 14.9156 8.34182C14.9213 8.33838 14.926 8.33387 14.9294 8.32862C14.9328 8.32337 14.9349 8.31751 14.9353 8.31148C15.2484 5.48187 14.4113 3.02369 12.7172 0.845108C12.7155 0.84151 12.713 0.838264 12.7097 0.835581C12.7065 0.832897 12.7027 0.830836 12.6985 0.829529ZM5.01292 6.82083C4.27324 6.82083 3.66481 6.2272 3.66481 5.49909C3.66481 4.77016 4.26199 4.17652 5.01292 4.17652C5.76947 4.17652 6.37228 4.77508 6.36103 5.49909C6.36103 6.2272 5.76385 6.82083 5.01292 6.82083ZM9.99662 6.82083C9.25787 6.82083 8.64851 6.2272 8.64851 5.49909C8.64851 4.77016 9.24569 4.17652 9.99662 4.17652C10.7532 4.17652 11.3569 4.77508 11.3447 5.49909C11.3447 6.2272 10.7532 6.82083 9.99662 6.82083Z"/>
</svg>
