<svg width="31" height="32" viewBox="0 0 31 32" fill="none" xmlns="http://www.w3.org/2000/svg">
<g clip-path="url(#clip0_2_52)">
<path d="M7 8.03987C7 7.89829 7.05619 7.76251 7.15621 7.6624C7.25624 7.56228 7.3919 7.50604 7.53335 7.50604H9.1334C9.25237 7.50608 9.36791 7.54592 9.46166 7.61924C9.5554 7.69256 9.62196 7.79515 9.65075 7.91068L10.0828 9.64135H22.4671C22.5455 9.64142 22.6228 9.65876 22.6937 9.69212C22.7645 9.72548 22.8272 9.77405 22.8772 9.83439C22.9272 9.89472 22.9633 9.96533 22.9829 10.0412C23.0026 10.1171 23.0053 10.1964 22.9909 10.2734L21.3908 18.8146C21.368 18.937 21.3031 19.0474 21.2075 19.127C21.1118 19.2065 20.9914 19.2501 20.8671 19.2502H11.2668C11.1425 19.2501 11.0221 19.2065 10.9264 19.127C10.8308 19.0474 10.7659 18.937 10.743 18.8146L9.14407 10.2894L8.71739 8.5737H7.53335C7.3919 8.5737 7.25624 8.51745 7.15621 8.41734C7.05619 8.31723 7 8.18145 7 8.03987ZM10.3089 10.709L11.7095 18.1826H20.4244L21.825 10.709H10.3089ZM12.3335 19.2502C11.7677 19.2502 11.225 19.4752 10.825 19.8757C10.4249 20.2761 10.2001 20.8192 10.2001 21.3855C10.2001 21.9519 10.4249 22.495 10.825 22.8954C11.225 23.2959 11.7677 23.5209 12.3335 23.5209C12.8993 23.5209 13.4419 23.2959 13.842 22.8954C14.2421 22.495 14.4669 21.9519 14.4669 21.3855C14.4669 20.8192 14.2421 20.2761 13.842 19.8757C13.4419 19.4752 12.8993 19.2502 12.3335 19.2502ZM19.8004 19.2502C19.2346 19.2502 18.6919 19.4752 18.2919 19.8757C17.8918 20.2761 17.667 20.8192 17.667 21.3855C17.667 21.9519 17.8918 22.495 18.2919 22.8954C18.6919 23.2959 19.2346 23.5209 19.8004 23.5209C20.3662 23.5209 20.9088 23.2959 21.3089 22.8954C21.709 22.495 21.9338 21.9519 21.9338 21.3855C21.9338 20.8192 21.709 20.2761 21.3089 19.8757C20.9088 19.4752 20.3662 19.2502 19.8004 19.2502ZM12.3335 20.3179C12.6164 20.3179 12.8877 20.4304 13.0878 20.6306C13.2878 20.8308 13.4002 21.1024 13.4002 21.3855C13.4002 21.6687 13.2878 21.9403 13.0878 22.1405C12.8877 22.3407 12.6164 22.4532 12.3335 22.4532C12.0506 22.4532 11.7793 22.3407 11.5792 22.1405C11.3792 21.9403 11.2668 21.6687 11.2668 21.3855C11.2668 21.1024 11.3792 20.8308 11.5792 20.6306C11.7793 20.4304 12.0506 20.3179 12.3335 20.3179ZM19.8004 20.3179C20.0833 20.3179 20.3546 20.4304 20.5547 20.6306C20.7547 20.8308 20.8671 21.1024 20.8671 21.3855C20.8671 21.6687 20.7547 21.9403 20.5547 22.1405C20.3546 22.3407 20.0833 22.4532 19.8004 22.4532C19.5175 22.4532 19.2462 22.3407 19.0461 22.1405C18.8461 21.9403 18.7337 21.6687 18.7337 21.3855C18.7337 21.1024 18.8461 20.8308 19.0461 20.6306C19.2462 20.4304 19.5175 20.3179 19.8004 20.3179V20.3179Z" fill="black"/>
</g>
<path opacity="0.75" d="M30.5 15.7689C30.5 24.2098 23.7762 31.0378 15.5 31.0378C7.2238 31.0378 0.5 24.2098 0.5 15.7689C0.5 7.32798 7.2238 0.5 15.5 0.5C23.7762 0.5 30.5 7.32798 30.5 15.7689Z" stroke="black"/>
<defs>
<clipPath id="clip0_2_52">
<rect width="18" height="18.581" fill="white" transform="translate(7 7.12183)"/>
</clipPath>
</defs>
</svg>
