<svg width="31" height="31" viewBox="0 0 31 31" fill="none" xmlns="http://www.w3.org/2000/svg">
<g clip-path="url(#clip0_1_1320)">
<path d="M7 8.03999C7 7.89841 7.05619 7.76263 7.15621 7.66252C7.25624 7.56241 7.3919 7.50616 7.53335 7.50616H9.1334C9.25237 7.5062 9.36791 7.54604 9.46166 7.61936C9.5554 7.69268 9.62196 7.79527 9.65075 7.91081L10.0828 9.64147H22.4671C22.5455 9.64155 22.6228 9.65888 22.6937 9.69224C22.7645 9.7256 22.8272 9.77418 22.8772 9.83451C22.9272 9.89484 22.9633 9.96545 22.9829 10.0413C23.0026 10.1172 23.0053 10.1965 22.9909 10.2735L21.3908 18.8148C21.368 18.9371 21.3031 19.0476 21.2075 19.1271C21.1118 19.2067 20.9914 19.2502 20.8671 19.2504H11.2668C11.1425 19.2502 11.0221 19.2067 10.9264 19.1271C10.8308 19.0476 10.7659 18.9371 10.743 18.8148L9.14407 10.2895L8.71739 8.57382H7.53335C7.3919 8.57382 7.25624 8.51758 7.15621 8.41746C7.05619 8.31735 7 8.18157 7 8.03999ZM10.3089 10.7091L11.7095 18.1827H20.4244L21.825 10.7091H10.3089ZM12.3335 19.2504C11.7677 19.2504 11.225 19.4753 10.825 19.8758C10.4249 20.2762 10.2001 20.8194 10.2001 21.3857C10.2001 21.952 10.4249 22.4951 10.825 22.8956C11.225 23.296 11.7677 23.521 12.3335 23.521C12.8993 23.521 13.4419 23.296 13.842 22.8956C14.2421 22.4951 14.4669 21.952 14.4669 21.3857C14.4669 20.8194 14.2421 20.2762 13.842 19.8758C13.4419 19.4753 12.8993 19.2504 12.3335 19.2504ZM19.8004 19.2504C19.2346 19.2504 18.6919 19.4753 18.2919 19.8758C17.8918 20.2762 17.667 20.8194 17.667 21.3857C17.667 21.952 17.8918 22.4951 18.2919 22.8956C18.6919 23.296 19.2346 23.521 19.8004 23.521C20.3662 23.521 20.9088 23.296 21.3089 22.8956C21.709 22.4951 21.9338 21.952 21.9338 21.3857C21.9338 20.8194 21.709 20.2762 21.3089 19.8758C20.9088 19.4753 20.3662 19.2504 19.8004 19.2504ZM12.3335 20.318C12.6164 20.318 12.8877 20.4305 13.0878 20.6307C13.2878 20.8309 13.4002 21.1025 13.4002 21.3857C13.4002 21.6688 13.2878 21.9404 13.0878 22.1406C12.8877 22.3408 12.6164 22.4533 12.3335 22.4533C12.0506 22.4533 11.7793 22.3408 11.5792 22.1406C11.3792 21.9404 11.2668 21.6688 11.2668 21.3857C11.2668 21.1025 11.3792 20.8309 11.5792 20.6307C11.7793 20.4305 12.0506 20.318 12.3335 20.318ZM19.8004 20.318C20.0833 20.318 20.3546 20.4305 20.5547 20.6307C20.7547 20.8309 20.8671 21.1025 20.8671 21.3857C20.8671 21.6688 20.7547 21.9404 20.5547 22.1406C20.3546 22.3408 20.0833 22.4533 19.8004 22.4533C19.5175 22.4533 19.2462 22.3408 19.0461 22.1406C18.8461 21.9404 18.7337 21.6688 18.7337 21.3857C18.7337 21.1025 18.8461 20.8309 19.0461 20.6307C19.2462 20.4305 19.5175 20.318 19.8004 20.318Z" fill="white"/>
</g>
<circle cx="15.5" cy="15.5" r="15" stroke="white" stroke-width="1" fill="none"/>
<defs>
<clipPath id="clip0_1_1320">
<rect width="18" height="18.2641" fill="white" transform="translate(7 7.00043)"/>
</clipPath>
</defs>
</svg>
